<svg version="1.2" baseProfile="tiny-ps" xmlns="http://www.w3.org/2000/svg" viewBox="0 0 24 21" width="24" height="21">
	<title>Resedential – 1</title>
	<defs>
		<clipPath clipPathUnits="userSpaceOnUse" id="cp1">
			<path d="m-1289-385h1400v950h-1400z" />
		</clipPath>
	</defs>
	<style>
		tspan { white-space:pre }
		.s0 { fill: #d1d1d1 } 
	</style>
	<g id="Resedential – 1" clip-path="url(#cp1)">
		<g id="Repeat Grid 345">
			<g id="Layer">
				<g id="Icon ionic-ios-options">
					<path id="Path 2009" class="s0" d="m14.5 17.29c0.35-0.8 1.15-1.36 2.08-1.36c0.93 0 1.72 0.56 2.08 1.36h4.26c0.5 0 0.9 0.41 0.9 0.9v0c0 0.5-0.41 0.9-0.9 0.9h-4.26c-0.35 0.8-1.15 1.36-2.08 1.36c-0.93 0-1.72-0.56-2.08-1.36h-13.31c-0.5 0-0.9-0.41-0.9-0.9v0c0-0.5 0.41-0.9 0.9-0.9h13.31z" />
					<path id="Path 2010" class="s0" d="m5.45 9.6c0.35-0.8 1.15-1.36 2.07-1.36c0.93 0 1.73 0.56 2.08 1.36h13.31c0.5 0 0.9 0.41 0.9 0.9v0c0 0.5-0.41 0.9-0.9 0.9h-13.31c-0.35 0.8-1.15 1.36-2.08 1.36c-0.93 0-1.72-0.56-2.07-1.36h-4.26c-0.5 0-0.9-0.41-0.9-0.9v0c0-0.5 0.41-0.9 0.9-0.9h4.26z" />
					<path id="Path 2011" class="s0" d="m14.5 1.9c0.35-0.8 1.15-1.36 2.08-1.36c0.93 0 1.72 0.56 2.08 1.36h4.26c0.5 0 0.9 0.41 0.9 0.9v0c0 0.5-0.41 0.9-0.9 0.9h-4.26c-0.35 0.8-1.15 1.36-2.08 1.36c-0.93 0-1.72-0.56-2.08-1.36h-13.31c-0.5 0-0.9-0.41-0.9-0.9v0c0-0.5 0.41-0.9 0.9-0.9h13.31z" />
				</g>
			</g>
		</g>
	</g>
</svg>